stateDiagram-v2
%% p1,p2 -- compact representation of different pattern state options. There are
%% actually 8 patterns, but to not explode the diagram with combinatorial
%% complexity I decided to get it down to just 2 to show that pattern can only
%% change to the other pattern and not to itself.

%% o1,o2 -- compact representation of different state options (consists of a
%% cross join of potential 8 accord options and 3 strength options). So actually
%% there are 24 potential options

%% ⏸: Everything is silent
%% ▶: Currently playing
%% ↣: Scheduled transition. either on the next tick, or somewhere in the future

⏸: everything is silent

%% Playing loop declarations

▶_loop_p1_o1: Loop - pattern 1, option 1
▶_loop_p1_o2: Loop - pattern 1, option 2
▶_loop_p2_o1: Loop - pattern 2, option 1
▶_loop_p2_o2: Loop - pattern 2, option 2

%% Playing single shot slow strum declarations

▶_once_o1: Strum once - option 1
▶_once_o2: Strum once - option 2

%% In progress transition declarations


loop --> loop_loop_transition
loop_loop_transition --> loop

loop_loop_loop_transition --> loop_loop_transition
loop_loop_transition --> loop_loop_loop_transition



1. from silence

-> playing_slow_strum
-> playing_loop

2. 

3. from loop_loop_transition

|         loop         |         loop         |   unassigned future  |
|          [0]         |          [1]         |                      |
| good zone | bad zone | good zone | bad zone | good zone | bad zone |

// realistically we can in this position end up in 4 potential points

-> if wants switch to loop
-> -> if the same loop: playing_loop
-> -> if the loop is different
-> -> -> if good zone: loop_loop_transition
-> -> -> if bad zone: loop_loop_transition
